<?xml version="1.0" encoding="UTF-8"?><svg id="Layer_2" xmlns="http://www.w3.org/2000/svg" viewBox="0 0 250 250"><defs><style>.cls-1{fill:#fff;}.cls-2{fill:#dedede;}.cls-3{fill:#231f20;}</style></defs><g id="Layer_1-2"><g><rect width="250" height="250"/><circle cx="126.04" cy="124.8" r="123.96"/><path class="cls-1" d="M133.63,224.8c-12.1,0-22.34-4.12-28.84-11.59-5.62-6.47-7.95-14.99-6.75-24.09-17.43-2.43-32.97-11.04-43.39-24.23-15.45-19.07-16.78-45.14-3.24-63.4,.51-.7,1.05-1.39,1.61-2.07-1.1-1.44-1.69-3.27-1.55-5.21l.71-9.62c.3-3.99,3.66-7.12,7.66-7.12,.19,0,.39,0,.58,.02l6.64,.49c7.4-25.07,25.08-44.33,47.05-50.9,5.25-1.52,10.42-2.28,15.44-2.28,2.6,0,5.17,.21,7.63,.62,16.58,2.61,30.4,10.95,39.91,24.11,7.44,10.29,12.1,23.2,13.62,37.6,2.82,.57,5.58,1.63,8.16,3.15,10.76,6.35,14.36,21.45,8.01,33.66-3.24,6.22-8.71,10.65-15.4,12.47-2.34,.63-4.81,.95-7.36,.95-.3,0-.6,0-.91-.01-.93,2.21-1.94,4.39-3.02,6.53,3.82,1.9,7.12,4.41,9.76,7.44,5.55,6.38,7.91,14.54,6.83,23.58-1.59,13.3-10.77,27.08-24.55,36.86-11.84,8.4-25.55,13.03-38.59,13.03Z"/><g><path class="cls-1" d="M161.74,156.69c14.35-20.57,20.23-46.74,16.52-71.43-2.29-14.35-8.52-28.66-20.1-37.81-11.24-8.93-26.74-12.88-40.69-8.85-24.44,7.04-39.99,31.57-43.84,55.83-7.92,5.22-14.59,12.32-18.07,21.14-5.75,14.21-1.79,30.8,7.62,42.53,11.63,14.93,30.1,21.85,48.7,22.43,3.11,.13,6.23,.08,9.33-.22,3.11-.29,6.19-.85,9.25-1.58,1.14-.28,1.63,1.4,.53,1.8-.82,.29-1.66,.56-2.49,.81,13.57-3.69,24.79-12.12,33.41-23.22-.41-.37-.48-.98-.16-1.42Z"/><ellipse cx="147.36" cy="182.26" rx="46.8" ry="32.24" transform="translate(-71.66 98.81) rotate(-30.19)"/><ellipse class="cls-1" cx="144.31" cy="175.55" rx="31.73" ry="22" transform="translate(-68.51 95.87) rotate(-30.05)"/><path class="cls-2" d="M175.42,93.36s.78,1.67,0,3.97c-2.35,6.89-6.42,20.38,.35,30.81,0,0-9.69,61.75-77.75,52.81-24.83-3.26-75.06-39.82-26.12-87.58-4.55,18.12-3.96,29.6,9.06,37.66,17.34,10.73,52.31-3.07,63.35-9.65,22.25-13.27,24.73-22,31.11-28.01Z"/><path d="M156.35,134.19c.67-.59,.74-1.61,.15-2.29-.59-.67-1.61-.74-2.29-.15-14.71,12.92-30.22,16.48-40.65,17.2-11.35,.78-19.31-1.55-19.39-1.58-.86-.25-1.76,.23-2.02,1.09-.26,.86,.23,1.76,1.09,2.02,.23,.07,4.16,1.22,10.44,1.69,.85,.06,1.74,.11,2.67,.14,.31,.57,4.13,7.54,7.31,12.04,2.64,3.74,5.67,5.08,8.55,5.29,2.11,.15,4.13-.3,5.86-.85h0s.05-.02,.07-.03c.89-.29,1.7-.6,2.4-.87,.31-.12,.61-.24,.89-.34,.21-.08,.4-.2,.55-.34,20.8-9.2,20.33-22.22,20.33-22.22-14.94,14.09-32.45,14.83-37.89,14.68-1.7-2.67-3.37-5.57-4.36-7.32,1.15-.02,2.33-.06,3.57-.15,10.96-.73,27.27-4.44,42.71-18.01Z"/><path d="M140.85,107.41c-2.75,0-4.98-3.25-4.98-7.26,0-1.65,.38-3.17,1.02-4.38-.33-.07-.67-.12-1.02-.12-4.17,0-7.56,5.27-7.56,11.77s3.38,11.77,7.56,11.77,7.56-5.27,7.56-11.77c0-.34-.01-.68-.03-1.02-.74,.64-1.61,1.02-2.54,1.02Z"/><path d="M94.04,104.1c-2.75,0-4.98-3.25-4.98-7.26,0-1.65,.38-3.17,1.02-4.38-.33-.07-.67-.12-1.02-.12-4.17,0-7.56,5.27-7.56,11.77s3.38,11.77,7.56,11.77,7.56-5.27,7.56-11.77c0-.34-.01-.68-.03-1.02-.74,.64-1.61,1.02-2.54,1.02Z"/><path d="M150.02,85.9c-.45,0-.9-.16-1.25-.49l-8.65-8.08-9.04,1.75c-1,.19-1.96-.46-2.15-1.45-.19-.99,.46-1.96,1.45-2.15l10.88-2.1,10.01,9.35c.74,.69,.78,1.85,.09,2.59-.36,.39-.85,.58-1.34,.58Z"/><path d="M80.96,84.16c-.48,0-.97-.19-1.33-.57-.7-.73-.67-1.89,.06-2.59l7.68-7.33,14.07,2.57c1,.18,1.66,1.14,1.48,2.13-.18,1-1.14,1.66-2.13,1.47l-12.23-2.23-6.32,6.04c-.35,.34-.81,.51-1.27,.51Z"/><path d="M73.58,93.85s6.37-33.47,26.8-43.25c0,0,12.56,36.72,49.96,5.58,0,0,23.15,11.04,24.91,44.16,0,0,3.61-6.77,7.6-5.44,3.99,1.33-9.19-57.68-46.38-60.77-37.19-3.1-60.3,26.84-62.89,59.73Z"/><path d="M161.74,156.69c14.35-20.57,20.23-46.74,16.52-71.43-2.29-14.35-8.52-28.66-20.1-37.81-11.24-8.93-26.74-12.88-40.69-8.85-24.44,7.04-39.99,31.57-43.84,55.83-7.92,5.22-14.59,12.32-18.07,21.14-5.75,14.21-1.79,30.8,7.62,42.53,11.63,14.93,30.1,21.85,48.7,22.43,3.11,.13,6.23,.08,9.33-.22,3.11-.29,6.19-.85,9.25-1.58,1.14-.28,1.63,1.4,.53,1.8-7.66,2.71-15.94,3.69-24.04,3.22-18.12-.33-36.16-8.19-47.56-22.65-12.95-15.96-15.71-39-3.11-56,3.97-5.39,9.03-9.87,14.63-13.29l-.83,1.28c3.08-26.01,19.61-52.39,45.75-60.2,6.52-1.89,13.56-2.62,20.34-1.49,46.75,7.37,57.53,61.09,42.99,99.67-1.8,4.93-4.02,9.7-6.64,14.23-2.61,4.54-5.66,8.81-9.1,12.72-.39,.45-1.07,.49-1.51,.1-.42-.37-.48-.99-.16-1.43h0Z"/><path class="cls-1" d="M194.85,97.08c-10.19-6.01-23.23-1.16-20.94,13.04l-1.71,7.38c.36,3.65,1.41,7.29,3.57,10.63,26.89,8.06,32.96-22.86,19.08-31.05Z"/><path d="M184.03,117.39c-.71,0-1.39-.41-1.68-1.11-1.06-2.46-.9-5.65,.42-8.34,1.02-2.08,2.71-3.92,5.01-5.48,.84-.57,1.98-.34,2.55,.5,.57,.84,.34,1.98-.5,2.55-1.79,1.2-3.02,2.53-3.76,4.05-.85,1.73-.98,3.8-.34,5.28,.4,.93-.03,2.01-.96,2.41-.24,.1-.48,.15-.73,.15Z"/><path d="M184.11,131.31c-4.45,0-9.35-1.2-14.64-3.6-.92-.42-1.33-1.51-.91-2.43,.42-.92,1.51-1.33,2.43-.91,12.52,5.68,22.71,3.84,27.26-4.91,3.93-7.57,1.96-17.09-4.32-20.79-4.87-2.88-10.48-3.05-14.3-.45-3.35,2.29-4.74,6.42-3.9,11.62,.16,1-.52,1.94-1.52,2.1-1,.16-1.94-.52-2.1-1.52-1.06-6.59,.92-12.14,5.45-15.23,4.98-3.4,12.13-3.27,18.23,.32,7.9,4.66,10.51,16.4,5.71,25.64-2.44,4.7-6.57,8.05-11.61,9.41-1.83,.5-3.75,.74-5.77,.74Z"/><path class="cls-3" d="M165.47,91.29l-6.73-.49-38.57-2.83-14.95-1.1-38.57-2.83-6.73-.49c-.89-.07-1.67,.6-1.73,1.5l-.71,9.62c-.07,.89,.6,1.67,1.5,1.73l5.11,.38-.9,12.19c-.26,3.53,.87,6.95,3.19,9.63s5.53,4.3,9.06,4.56l15.35,1.13c.33,.02,.66,.04,.98,.04,6.87,0,12.7-5.32,13.21-12.29l.78-10.63c.77-1.89,3.24-3.13,5.99-2.97,2.82,.16,5.24,1.8,5.74,3.84l-.78,10.63c-.26,3.53,.87,6.95,3.19,9.63s5.53,4.3,9.06,4.56l15.35,1.13c.33,.02,.66,.04,.98,.04,6.87,0,12.7-5.32,13.21-12.29l.9-12.19,5.11,.38s.08,0,.12,0c.84,0,1.55-.65,1.61-1.5l.71-9.62c.07-.89-.6-1.67-1.5-1.73Zm-74.42,29.75l-15.35-1.13c-2.67-.2-5.1-1.42-6.85-3.45-1.75-2.03-2.6-4.61-2.41-7.28l1.6-21.81,35.34,2.6-.8,10.93h0s-.8,10.88-.8,10.88c-.41,5.51-5.21,9.67-10.73,9.26Zm53.52,3.93l-15.35-1.13c-2.67-.2-5.1-1.42-6.85-3.45-1.75-2.03-2.6-4.61-2.41-7.28l1.6-21.81,35.34,2.6-.59,8.01h0s-1.01,13.8-1.01,13.8c-.41,5.51-5.21,9.66-10.73,9.26Z"/><ellipse class="cls-1" cx="102.95" cy="123.53" rx="7.81" ry="4.35"/><path d="M100.65,136.95c-3.33,0-6.64-1.2-9.14-4.61-1.9-2.59-2.17-5.46-.75-8.08,2.02-3.73,7.25-6.27,10.06-6.32,.73-1.02,1.36-5.31,1.35-9.35,0-1.01,.81-1.84,1.83-1.84h0c1.01,0,1.83,.82,1.83,1.83,.04,8.94-1.98,11.56-2.6,12.15-.66,.62-1.45,.92-2.31,.88-.03,0-.05,0-.08,0-1.4,0-5.44,1.77-6.86,4.4-.74,1.37-.59,2.69,.49,4.16,5.24,7.14,15.72-.27,15.82-.35,.82-.59,1.97-.4,2.56,.42s.4,1.97-.42,2.56c-2.68,1.93-7.26,4.15-11.79,4.15Z"/></g></g></g></svg>